<svg xmlns="http://www.w3.org/2000/svg" viewBox="0 0 86 94">
  <path fill="#242265" d="M0 37.6L.1 57a27.6 27.6 0 0014 23.8l16.8 9.6a27.6 27.6 0 0027.6-.2l16.8-9.8a27.6 27.6 0 0013.6-24V37a27.6 27.6 0 00-14-23.8L58 3.6a27.6 27.6 0 00-27.6.2l-16.8 9.8A27.6 27.6 0 000 37.6" />
  <path fill="#00d8ff" d="M38.2 47a4.7 4.7 0 10-4.7 4.7 4.7 4.7 0 004.7-4.7M49.1 47a4.7 4.7 0 10-4.6 4.7A4.7 4.7 0 0049 47M60 47a4.7 4.7 0 10-4.6 4.7A4.7 4.7 0 0060 47 M81.8 48.5a2.1 2.1 0 000-.3 6 6 0 00.2-.7v-.4-1a5.2 5.2 0 00-.1-.8 5 5 0 00-.5-1.3 6.5 6.5 0 00-3.6-3c-1.3-.5-2.6-.7-4-1a14.2 14.2 0 01-2.6-1l-.6-.4-.7-.4a14 14 0 01-1.4-1L66 35a20 20 0 01-2-2.3l-.2-.3a14.2 14.2 0 01-1.9-4l-.8-2.8a8 8 0 00-1.4-2.8 5.5 5.5 0 00-7.8-1.1 5.5 5.5 0 00-1.4 6.9 6.5 6.5 0 003.6 3c1.3.5 2.6.7 4 1a13.5 13.5 0 012.5 1 6.1 6.1 0 01.6.4c.3 0 .5.3.8.4a13.1 13.1 0 011.4 1l2.3 2.3A20 20 0 0168 40l.2.2a14.2 14.2 0 012 4.1 12.4 12.4 0 01.4 2.7 7.6 7.6 0 01-.5 2.5 15 15 0 01-1 2.5l-.3.6c0 .2-.3.5-.5.8a14.5 14.5 0 01-1 1.4L65 57a18.6 18.6 0 01-2.3 2.1l-.2.2a14 14 0 01-4.2 2l-2.7.7a8 8 0 00-2.8 1.4 5.5 5.5 0 00-1 7.9 5.5 5.5 0 006.8 1.4 6.5 6.5 0 003-3.7c.5-1.3.8-2.6 1-4a14 14 0 011-2.5l.4-.6c0-.2.3-.5.5-.8a14 14 0 011-1.4 71 71 0 012.2-2.3 20.3 20.3 0 012.3-2l.2-.2a14.5 14.5 0 014.1-2l2.7-.8a8.2 8.2 0 002.8-1.4 6.1 6.1 0 001.6-1.7 6 6 0 00.4-1M8.3 48.5v-.3a6 6 0 01-.3-.7v-.4a4.4 4.4 0 010-.6V46a5.2 5.2 0 01.1-.8 5 5 0 01.5-1.3 6.5 6.5 0 013.7-3c1.2-.5 2.6-.7 3.9-1a14 14 0 002.6-1l.6-.4.7-.4a14 14 0 001.4-1L24 35a21 21 0 002.1-2.4l.1-.2a14.2 14.2 0 002-4l.8-2.8a8.3 8.3 0 011.4-2.8 5.5 5.5 0 017.8-1.1 5.5 5.5 0 011.4 6.9 6.4 6.4 0 01-3.6 3c-1.3.5-2.7.7-4 1a13.2 13.2 0 00-2.6 1 6.3 6.3 0 00-.5.4c-.3 0-.5.3-.8.4a12 12 0 00-1.4 1l-2.3 2.3A20 20 0 0022 40l-.1.2a14 14 0 00-2 4 12.4 12.4 0 00-.4 2.8 7.3 7.3 0 00.4 2.5 14.1 14.1 0 001 2.5l.3.6.5.8a12.9 12.9 0 001 1.4L25 57a18.6 18.6 0 002.3 2.1l.2.2a14.2 14.2 0 004.1 2l2.7.7a8 8 0 012.8 1.4 5.5 5.5 0 011.1 7.9 5.5 5.5 0 01-6.9 1.4 6.5 6.5 0 01-3-3.7l-1-4a14 14 0 00-1-2.5L26 62l-.5-.8a15.8 15.8 0 00-1-1.4l-2.2-2.3a21 21 0 00-2.3-2.1l-.2-.2a14.5 14.5 0 00-4.1-2l-2.7-.7a8.2 8.2 0 01-2.8-1.4 6 6 0 01-1.5-1.7 4.5 4.5 0 01-.4-1"/>
</svg>